# xmcd CD database file generated by freedbAccess_ocx
#
# Track frame offsets:
#       182
#       14122
#       30930
#       42925
#       56742
#       72570
#       87737
#       97957
#       108210
#       118275
#       132695
#       147175
#       162302
#       176982
#
# Disc length: 2600 seconds
#
# Revision: 0
# Processed by: cddbd v1.4PL0 Copyright (c) Steve Scherf et al.
# Submitted via: CDnGo 2.00
#
DISCID=d30a260e
DTITLE=Tony Linhart - Tulacky blues
DYEAR=1994
DGENRE=Country
TTITLE0=Kamaradsky kruh
TTITLE1=Karneval
TTITLE2=Charleston
TTITLE3=Zastrcenej servis
TTITLE4=Krysar a kral
TTITLE5=Ma lod pluje do neznama
TTITLE6=Tvuj cas
TTITLE7=Ten kdo bloudi
TTITLE8=Vsem pristim dnum
TTITLE9=Tahnu dal
TTITLE10=Tam v patem patre
TTITLE11=Tulacky blues
TTITLE12=Chocerady
TTITLE13=Dobra voda
EXTD=
EXTT0=
EXTT1=
EXTT2=
EXTT3=
EXTT4=
EXTT5=
EXTT6=
EXTT7=
EXTT8=
EXTT9=
EXTT10=
EXTT11=
EXTT12=
EXTT13=
PLAYORDER=
